<?xml version="1.0" encoding="UTF-8"?>
<svg preserveAspectRatio="xMidYMid slice" width="68px" height="68px" xmlns="http://www.w3.org/2000/svg" xmlns:xlink="http://www.w3.org/1999/xlink" version="1.1" id="Layer_1" x="0px" y="0px" viewBox="0 0 700 700" style="enable-background:new 0 0 700 700;" xml:space="preserve">
<g>
	<path d="M175.3,88.6c0,48.4-39.2,87.6-87.6,87.6S0,137,0,88.6S39.2,1,87.6,1S175.3,40.2,175.3,88.6"></path>
	<path d="M175.3,349.1c0,48.4-39.2,87.6-87.6,87.6S0,397.5,0,349.1c0-48.4,39.2-87.6,87.6-87.6S175.3,300.7,175.3,349.1"></path>
	<path d="M175.3,609.7c0,48.4-39.2,87.6-87.6,87.6S0,658.1,0,609.7s39.2-87.6,87.6-87.6S175.3,561.3,175.3,609.7"></path>
	<path d="M437.5,88.6c0,48.4-39.2,87.6-87.6,87.6c-48.4,0-87.6-39.2-87.6-87.6S301.5,1,349.9,1C398.3,1,437.5,40.2,437.5,88.6"></path>
	<path d="M437.5,349.1c0,48.4-39.2,87.6-87.6,87.6c-48.4,0-87.6-39.2-87.6-87.6c0-48.4,39.2-87.6,87.6-87.6   C398.3,261.5,437.5,300.7,437.5,349.1"></path>
	<path d="M437.5,609.7c0,48.4-39.2,87.6-87.6,87.6c-48.4,0-87.6-39.2-87.6-87.6s39.2-87.6,87.6-87.6   C398.3,522.1,437.5,561.3,437.5,609.7"></path>
	<path d="M699.7,88.6c0,48.4-39.2,87.6-87.6,87.6c-48.4,0-87.6-39.2-87.6-87.6S563.7,1,612.1,1C660.5,1,699.7,40.2,699.7,88.6"></path>
	<path d="M699.7,349.1c0,48.4-39.2,87.6-87.6,87.6c-48.4,0-87.6-39.2-87.6-87.6c0-48.4,39.2-87.6,87.6-87.6   C660.5,261.5,699.7,300.7,699.7,349.1"></path>
	<path d="M699.7,609.7c0,48.4-39.2,87.6-87.6,87.6c-48.4,0-87.6-39.2-87.6-87.6s39.2-87.6,87.6-87.6   C660.5,522.1,699.7,561.3,699.7,609.7"></path>
</g>
</svg>
