<?xml version="1.0" encoding="UTF-8"?>
<svg preserveAspectRatio="xMidYMid slice" width="378px" height="380px" xmlns="http://www.w3.org/2000/svg" xmlns:xlink="http://www.w3.org/1999/xlink" version="1.1" id="Layer_1" x="0px" y="0px" viewBox="0 0 700 700" style="enable-background:new 0 0 700 700;" xml:space="preserve">
<g>
	<path d="M271.5,0.1c91.1,0,134.2-0.1,225.2,0.4c35.5,0.2,64.1,23.3,73.6,57.1c9.1,32.7-3.2,68.1-33.1,85.1   c-13.6,7.7-30.8,12.8-46.4,12.9c-178.5,0.9-230.4,0.6-408.9,0.3c-47.8-0.1-82.5-34.2-82-79.1C0.5,32.7,35,0.3,82.4,0.2   C171.6,0,182.2,0.1,271.5,0.1L271.5,0.1L271.5,0.1z"></path>
	<path d="M350,700c-88.6,0-177.3,0.1-265.9,0c-48.5,0-83.5-32.2-84-76.8c-0.5-44.8,33.7-78.9,82.1-79c178.5-0.5,99.4-0.7,277.9-0.2   c48.4,0.1,82.7,34.2,82.3,78.9c-0.4,44.7-35.5,76.9-83.9,77C269.7,699.8,438.6,700,350,700L350,700z"></path>
	<path d="M350.1,427.2c-89.2,0-178.5,0.1-267.7,0c-47.4-0.1-81.9-32-82.4-76.1c-0.6-44.3,33.3-78.3,80.2-78.3   c180.3-0.4,360.6-0.3,540.8,0c41.3,0.1,72.9,28.1,78.3,67c5.2,37.6-19,74.6-56.3,84.8c-8.6,2.4-18,2.6-27,2.6   C527.4,427.3,438.7,427.2,350.1,427.2L350.1,427.2z"></path>
</g>
</svg>
